<svg width="118" height="28" viewBox="0 0 118 28" fill="none" xmlns="http://www.w3.org/2000/svg">
<path d="M11.6499 10.9297C11.8424 10.3522 12.6578 10.3522 12.8503 10.9297L13.9789 14.3194C14.2273 15.0646 14.6459 15.7416 15.2014 16.2969C15.7569 16.8522 16.4341 17.2704 17.1793 17.5185L20.5669 18.6472C21.1444 18.8397 21.1444 19.6552 20.5669 19.8477L17.1775 20.9765C16.4325 21.2249 15.7555 21.6435 15.2003 22.1991C14.6451 22.7547 14.2269 23.4319 13.9789 24.1772L12.8503 27.5652C12.8088 27.6917 12.7284 27.8018 12.6206 27.8799C12.5128 27.958 12.3831 28 12.2501 28C12.117 28 11.9873 27.958 11.8795 27.8799C11.7717 27.8018 11.6914 27.6917 11.6499 27.5652L10.5212 24.1755C10.273 23.4305 9.85471 22.7536 9.29952 22.1983C8.74432 21.6431 8.06748 21.2247 7.32259 20.9765L3.93321 19.8477C3.80676 19.8062 3.69665 19.7258 3.61859 19.618C3.54053 19.5102 3.4985 19.3806 3.4985 19.2475C3.4985 19.1144 3.54053 18.9847 3.61859 18.8769C3.69665 18.7691 3.80676 18.6887 3.93321 18.6472L7.32259 17.5185C8.06748 17.2702 8.74432 16.8518 9.29952 16.2966C9.85471 15.7413 10.273 15.0644 10.5212 14.3194L11.6499 10.9297ZM4.89035 2.00639C4.91544 1.9306 4.96378 1.86465 5.02849 1.81791C5.0932 1.77117 5.17099 1.74601 5.25081 1.74601C5.33064 1.74601 5.40843 1.77117 5.47314 1.81791C5.53785 1.86465 5.58618 1.9306 5.61128 2.00639L6.28845 4.0399C6.59117 4.9464 7.30159 5.6569 8.208 5.95965L10.2413 6.63691C10.3171 6.662 10.383 6.71034 10.4297 6.77506C10.4765 6.83978 10.5016 6.91758 10.5016 6.99741C10.5016 7.07724 10.4765 7.15504 10.4297 7.21976C10.383 7.28448 10.3171 7.33282 10.2413 7.35791L8.208 8.03516C7.76096 8.18412 7.35476 8.43515 7.02158 8.76837C6.6884 9.10159 6.43739 9.50784 6.28845 9.95492L5.61128 11.9884C5.58618 12.0642 5.53785 12.1302 5.47314 12.1769C5.40843 12.2236 5.33064 12.2488 5.25081 12.2488C5.17099 12.2488 5.0932 12.2236 5.02849 12.1769C4.96378 12.1302 4.91544 12.0642 4.89035 11.9884L4.21318 9.95492C4.06424 9.50784 3.81323 9.10159 3.48005 8.76837C3.14687 8.43515 2.74066 8.18412 2.29363 8.03516L0.260349 7.35791C0.184573 7.33282 0.118631 7.28448 0.0718934 7.21976C0.0251559 7.15504 0 7.07724 0 6.99741C0 6.91758 0.0251559 6.83978 0.0718934 6.77506C0.118631 6.71034 0.184573 6.662 0.260349 6.63691L2.29363 5.95965C2.74066 5.8107 3.14687 5.55967 3.48005 5.22645C3.81323 4.89323 4.06424 4.48698 4.21318 4.0399L4.89035 2.00639ZM17.2598 0.17063C17.277 0.120801 17.3094 0.0775928 17.3524 0.0470126C17.3953 0.0164324 17.4468 0 17.4995 0C17.5522 0 17.6037 0.0164324 17.6466 0.0470126C17.6896 0.0775928 17.722 0.120801 17.7392 0.17063L18.1907 1.52514C18.3919 2.13064 18.8661 2.60489 19.4715 2.80614L20.8259 3.25764C20.8757 3.27492 20.9189 3.30729 20.9495 3.35026C20.9801 3.39323 20.9965 3.44466 20.9965 3.49739C20.9965 3.55013 20.9801 3.60156 20.9495 3.64453C20.9189 3.6875 20.8757 3.71987 20.8259 3.73715L19.4715 4.18865C19.1732 4.28791 18.9021 4.45538 18.6797 4.67774C18.4574 4.90011 18.2899 5.17126 18.1907 5.46965L17.7392 6.82416C17.722 6.87399 17.6896 6.9172 17.6466 6.94778C17.6037 6.97836 17.5522 6.99479 17.4995 6.99479C17.4468 6.99479 17.3953 6.97836 17.3524 6.94778C17.3094 6.9172 17.277 6.87399 17.2598 6.82416L16.8083 5.46965C16.7091 5.17126 16.5416 4.90011 16.3193 4.67774C16.0969 4.45538 15.8258 4.28791 15.5275 4.18865L14.1749 3.73715C14.125 3.71987 14.0818 3.6875 14.0513 3.64453C14.0207 3.60156 14.0042 3.55013 14.0042 3.49739C14.0042 3.44466 14.0207 3.39323 14.0513 3.35026C14.0818 3.30729 14.125 3.27492 14.1749 3.25764L15.5292 2.80614C16.1346 2.60489 16.6088 2.13064 16.8101 1.52514L17.2598 0.17238V0.17063Z" fill="#F35B04"/>
<path d="M28.3965 20.582V8.42383C28.3965 8.16992 28.4844 7.95182 28.6602 7.76953C28.8359 7.58724 29.0508 7.49609 29.3047 7.49609H36.7559C40.6947 7.49609 42.6641 9.3125 42.6641 12.9453C42.6641 16.5716 40.6947 18.3848 36.7559 18.3848H32.0781V20.582C32.0781 20.8359 31.987 21.054 31.8047 21.2363C31.6289 21.4121 31.4141 21.5 31.1602 21.5H29.3242C29.0703 21.5 28.8522 21.4121 28.6699 21.2363C28.4876 21.054 28.3965 20.8359 28.3965 20.582ZM32.0781 15.6211H35.6426C36.7363 15.6211 37.5664 15.4388 38.1328 15.0742C38.6992 14.7031 38.9824 13.9935 38.9824 12.9453C38.9824 11.8906 38.6992 11.181 38.1328 10.8164C37.5664 10.4453 36.7363 10.2598 35.6426 10.2598H32.0781V15.6211ZM44.4707 20.5625V8.4043C44.4707 8.15039 44.5618 7.93555 44.7441 7.75977C44.9264 7.58398 45.1445 7.49609 45.3984 7.49609H56.6582C56.9121 7.49609 57.127 7.58724 57.3027 7.76953C57.485 7.95182 57.5762 8.16992 57.5762 8.42383V9.3418C57.5762 9.5957 57.485 9.8138 57.3027 9.99609C57.127 10.1719 56.9121 10.2598 56.6582 10.2598H48.1523V13.1016H55.4766C55.7305 13.1016 55.9453 13.1927 56.1211 13.375C56.3034 13.5508 56.3945 13.7656 56.3945 14.0195V14.9375C56.3945 15.1914 56.3034 15.4095 56.1211 15.5918C55.9453 15.7676 55.7305 15.8555 55.4766 15.8555H48.1523V18.7363H56.6387C56.8861 18.7363 57.0977 18.8242 57.2734 19C57.4492 19.1758 57.5371 19.3906 57.5371 19.6445V20.582C57.5371 20.8359 57.446 21.054 57.2637 21.2363C57.0814 21.4121 56.8633 21.5 56.6094 21.5H45.3984C45.1445 21.5 44.9264 21.4121 44.7441 21.2363C44.5618 21.054 44.4707 20.8294 44.4707 20.5625ZM65.5547 8.75586V7.79883C65.5547 7.54492 65.6458 7.33008 65.8281 7.1543C66.0104 6.97201 66.235 6.88086 66.502 6.88086H68.2988C68.5658 6.88086 68.7871 6.97201 68.9629 7.1543C69.1452 7.33008 69.2363 7.54492 69.2363 7.79883V8.75586C71.4629 8.75586 73.2337 9.21484 74.5488 10.1328C75.8639 11.0443 76.5215 12.4993 76.5215 14.498C76.5215 16.4967 75.8639 17.9551 74.5488 18.873C73.2337 19.7845 71.4629 20.2402 69.2363 20.2402V21.1973C69.2363 21.4512 69.1419 21.666 68.9531 21.8418C68.7708 22.0241 68.5527 22.1152 68.2988 22.1152H66.502C66.248 22.1152 66.0267 22.0241 65.8379 21.8418C65.6491 21.666 65.5547 21.4512 65.5547 21.1973V20.2402C63.3281 20.2402 61.5573 19.7845 60.2422 18.873C58.9336 17.9551 58.2793 16.4967 58.2793 14.498C58.2793 12.4993 58.9336 11.0443 60.2422 10.1328C61.5573 9.21484 63.3281 8.75586 65.5547 8.75586ZM65.6621 17.6035V11.4023C64.5163 11.4023 63.6113 11.6595 62.9473 12.1738C62.2897 12.6816 61.9609 13.4564 61.9609 14.498C61.9609 15.5397 62.2897 16.3177 62.9473 16.832C63.6113 17.3464 64.5163 17.6035 65.6621 17.6035ZM69.1387 17.6035C70.2845 17.6035 71.1862 17.3464 71.8438 16.832C72.5078 16.3177 72.8398 15.5397 72.8398 14.498C72.8398 13.4564 72.5078 12.6816 71.8438 12.1738C71.1862 11.6595 70.2845 11.4023 69.1387 11.4023V17.6035ZM80.9844 18.5605L82.625 18.7363H82.8301C84.1257 18.7363 85.0111 17.89 85.4863 16.1973H84.6465C83.0059 16.1973 81.7266 15.8652 80.8086 15.2012C79.8906 14.5306 79.1029 13.4434 78.4453 11.9395L76.9121 8.42383C76.8014 8.16341 76.7982 7.94531 76.9023 7.76953C77.013 7.58724 77.1953 7.49609 77.4492 7.49609H79.5098C80.1348 7.49609 80.5677 7.79232 80.8086 8.38477L81.9316 11.0996C82.2637 11.8874 82.6803 12.4766 83.1816 12.8672C83.6829 13.2513 84.3438 13.4434 85.1641 13.4434H86.3652L88.1328 8.4043C88.224 8.12435 88.3835 7.90299 88.6113 7.74023C88.8392 7.57747 89.0866 7.49609 89.3535 7.49609H91.3262C91.5801 7.49609 91.7559 7.56771 91.8535 7.71094C91.9512 7.84766 92 7.97135 92 8.08203C92 8.1862 91.9837 8.28711 91.9512 8.38477L88.7676 17.4961C88.3249 18.7786 87.6576 19.7682 86.7656 20.4648C85.8737 21.1549 84.627 21.5 83.0254 21.5H80.6719C80.418 21.5 80.1999 21.4121 80.0176 21.2363C79.8353 21.054 79.7441 20.8359 79.7441 20.582V19.4785C79.7441 19.2246 79.832 19.0098 80.0078 18.834C80.1836 18.6517 80.4049 18.5605 80.6719 18.5605H80.9844ZM108.104 21.0703C108.104 21.3568 107.934 21.5 107.596 21.5H105.359C105.105 21.5 104.832 21.4121 104.539 21.2363C104.246 21.054 104.018 20.8359 103.855 20.582L102.137 17.8574C101.727 17.1934 101.313 16.6953 100.896 16.3633C100.48 16.0247 99.9785 15.8555 99.3926 15.8555H97.293V20.6016C97.293 20.8555 97.2018 21.0703 97.0195 21.2461C96.8438 21.4154 96.6289 21.5 96.375 21.5H94.5391C94.2852 21.5 94.0671 21.4089 93.8848 21.2266C93.7025 21.0378 93.6113 20.8164 93.6113 20.5625V8.42383C93.6113 8.16992 93.7025 7.94857 93.8848 7.75977C94.0671 7.57096 94.2852 7.47656 94.5391 7.47656H96.375C96.6289 7.47656 96.8438 7.57096 97.0195 7.75977C97.2018 7.94857 97.293 8.16992 97.293 8.42383V13.1016H99.3926C99.9655 13.1016 100.467 12.9453 100.896 12.6328C101.333 12.3203 101.746 11.8158 102.137 11.1191L103.65 8.42383C103.995 7.79883 104.464 7.48307 105.057 7.47656H107.312C107.625 7.47656 107.781 7.61328 107.781 7.88672C107.781 8.03646 107.726 8.21549 107.615 8.42383L105.496 12.2617C105.19 12.8216 104.845 13.2839 104.461 13.6484C104.083 14.013 103.589 14.2702 102.977 14.4199C103.406 14.5111 103.846 14.7812 104.295 15.2305C104.751 15.6797 105.151 16.168 105.496 16.6953L107.938 20.582C108.048 20.7708 108.104 20.9336 108.104 21.0703Z" fill="black"/>
</svg>
