<svg width="257" height="259" viewBox="0 0 257 259" fill="none" xmlns="http://www.w3.org/2000/svg">
<path d="M50.6227 125.297L50.6233 125.296C60.8058 118.559 69.2792 109.535 75.3721 98.9392C81.465 88.3437 85.01 76.4681 85.7268 64.2536C85.7268 64.2534 85.7268 64.2532 85.7268 64.253L88.9197 10.1286C89.3518 2.82293 98.7853 0.295031 102.813 6.40541C102.813 6.40557 102.813 6.40575 102.813 6.40591L132.647 51.7085L132.648 51.7092C139.381 61.9254 148.394 70.4327 158.972 76.5566C169.55 82.6804 181.402 86.2524 193.589 86.9889L247.582 90.2689L247.591 90.2694C249.182 90.3588 250.706 90.9498 251.945 91.9593C253.184 92.9687 254.075 94.345 254.49 95.8918C254.904 97.4386 254.821 99.0759 254.252 100.57C253.684 102.064 252.659 103.337 251.326 104.21L251.319 104.215L206.174 134.059L206.173 134.06C195.993 140.793 187.52 149.813 181.426 160.404C175.332 170.995 171.784 182.866 171.063 195.076L171.063 195.077L167.877 249.228L167.876 249.237C167.789 250.835 167.201 252.363 166.196 253.603C165.192 254.843 163.823 255.732 162.285 256.144C160.746 256.556 159.116 256.471 157.626 255.899L156.91 257.766L157.626 255.899C156.136 255.327 154.863 254.298 153.989 252.958L153.984 252.95L124.149 207.647L124.149 207.647C117.419 197.433 108.41 188.926 97.8375 182.801C87.2644 176.676 75.4171 173.101 63.2338 172.36L63.2333 172.36L9.21503 169.087C9.21483 169.087 9.21462 169.087 9.21441 169.087C1.92799 168.643 -0.610588 159.169 5.47749 155.141C5.47766 155.14 5.47783 155.14 5.478 155.14L50.6227 125.297Z" stroke="#F35B04" stroke-width="4"/>
</svg>
