<svg width="314" height="380" viewBox="0 0 314 380" fill="none" xmlns="http://www.w3.org/2000/svg">
<path d="M99.6555 109.989L99.6547 109.989L16.5547 103.412C16.5545 103.412 16.5543 103.412 16.5541 103.412C4.30984 102.447 -2.13096 117.631 7.07256 125.764C7.07272 125.764 7.07287 125.764 7.07302 125.765L69.5573 180.942L69.5577 180.943C83.5213 193.28 94.4191 208.709 101.388 226.009C108.357 243.309 111.206 262.004 109.71 280.612L109.71 280.613L102.993 363.872L102.993 363.88C102.765 366.562 103.388 369.245 104.772 371.546C106.157 373.847 108.231 375.65 110.701 376.697C113.17 377.744 115.908 377.983 118.524 377.379C121.141 376.775 123.503 375.359 125.273 373.331L125.279 373.325L180.473 310.63L180.474 310.629C192.813 296.62 208.235 285.675 225.517 278.663C242.799 271.65 261.467 268.762 280.042 270.227L280.043 270.227L363.143 276.804L363.152 276.805C365.826 277.028 368.504 276.4 370.805 275.008C373.106 273.616 374.911 271.533 375.962 269.054C377.013 266.576 377.257 263.83 376.658 261.208C376.06 258.587 374.65 256.225 372.631 254.457L372.625 254.451L310.178 199.29C296.205 186.955 285.299 171.524 278.323 154.221C271.347 136.918 268.493 118.218 269.988 99.6038L269.988 99.6031L276.704 16.3448C276.704 16.3446 276.704 16.3444 276.704 16.3442C277.69 4.07572 262.555 -2.34411 254.419 6.89136L99.6555 109.989ZM99.6555 109.989C118.236 111.452 136.91 108.559 154.195 101.54C171.48 94.52 186.902 83.5669 199.24 69.5487C199.24 69.5486 199.24 69.5484 199.24 69.5483L254.418 6.89158L99.6555 109.989Z" stroke="#F35B04" stroke-width="4"/>
</svg>
