<svg width="121" height="121" viewBox="0 0 121 121" fill="none" xmlns="http://www.w3.org/2000/svg">
<path d="M30.4982 42.0563L30.4975 42.0564L5.23256 43.565C2.84656 43.7082 2.01877 46.7969 4.013 48.1142C4.01317 48.1143 4.01334 48.1144 4.01351 48.1146L25.1393 62.0535L25.1397 62.0538C30.0413 65.2898 34.1222 69.6226 37.0589 74.7092C39.9957 79.7958 41.7076 85.4964 42.0592 91.3594L42.0593 91.3599L43.5679 116.625L43.5684 116.634C43.5973 117.155 43.7898 117.653 44.1186 118.058C44.4474 118.463 44.8957 118.753 45.3995 118.888C45.9032 119.023 46.4367 118.996 46.9239 118.81C47.4111 118.623 47.827 118.288 48.1123 117.852L48.1171 117.844L62.0564 96.7181L62.0567 96.7177C65.2926 91.816 69.6255 87.7351 74.7121 84.7984C79.7987 81.8616 85.4993 80.1497 91.3622 79.7981L91.3627 79.7981L116.628 78.2894L116.637 78.2889C117.158 78.2601 117.656 78.0675 118.061 77.7387C118.466 77.4099 118.756 76.9616 118.891 76.4579C119.026 75.9541 118.999 75.4206 118.812 74.9334C118.626 74.4462 118.291 74.0303 117.854 73.745L117.847 73.7401L96.7332 59.8043C96.733 59.8042 96.7328 59.8041 96.7327 59.804C91.8284 56.5691 87.745 52.2364 84.8061 47.1493C81.8671 42.062 80.1535 36.36 79.801 30.4954L79.8009 30.4946L78.2923 5.22968C78.1491 2.84359 75.0602 2.01582 73.7429 4.01038L30.4982 42.0563ZM30.4982 42.0563C36.3629 41.7038 42.0648 39.9902 47.1522 37.0512C52.2393 34.1123 56.572 30.0289 59.8068 25.1247C59.8069 25.1245 59.8071 25.1243 59.8072 25.1241L73.7428 4.01064L30.4982 42.0563Z" stroke="#F35B04" stroke-width="4"/>
</svg>
